<?xml version="1.0" encoding="UTF-8"?>
<svg id="Calque_1" data-name="Calque 1" xmlns="http://www.w3.org/2000/svg" viewBox="0 0 437.16 219.94">
  <defs>
    <style>
      .cls-1 {
        fill: #0075bb;
      }
    </style>
  </defs>
  <path class="cls-1" d="M119.04,103.7c-1.89,40.19,11.01,41.38,10.04,69.61-.33,9.54-4.8,16.74-13.4,20.52-19.2,8.44-26.61-4.69-42.13-18.14-4.13-3.58-8.66-6.37-14.2-4.38-15.17,5.44-24.66-5.09-35.22-14.47-3.72-3.3-8.37-6.46-9.91-11.66-.73-2.49,3.44-6.24,5.01-8.11,3.14-3.75-1.53-6.58-4.01-8.78-4.94-4.37-9.35-8.73-13.86-13.51-2.58-2.74-1.07-7.6,1.1-9.22,3.49-2.6,6.49-.6,9.43,2.09l16.81,15.34c1.31,1.16,5.75-3.23,4.55-4.54-5.84-6.37-12.53-12.39-18.53-17.85-1.59-1.45-1.33-7.11.29-8.54,4.31-3.83,10.22-.8,13.59,3.22,4.15,4.94,9.81,9.44,14.63,13.4,2.75-2.42,5.12-4.52,7.01-4.57,2.41-.06,4.83,1.51,6.69,3.33,9.68,9.47,26.87,21.09,23.57,36.09-1.8,8.18,2.3,12.55,8.15,17.31l9.1,7.4c1.05.85,3.19,1.75,4.35,1.83s2.37-3.61,2.07-4.89l-7.05-30.53C82.83,72.68,124.03,10.43,187.19,1.64c36.2-5.04,72.33,1.59,104.97,18.65,38,19.86,73.08,43.43,107.04,69.64,13.63,10.52,27.08,22.12,34.27,37.89,10.19,22.35-1.77,48.17-22.6,59.47-14.53,7.88-29.74,11.02-46.12,13.46-5.42,11.11-14.8,17.8-26.95,18.87-12.14,1.07-24.11-3.71-30.39-14.6-1.56-2.7-4.3-5.11-7.84-5.11h-96.86c-3.19-.01-5.94,1.87-7.45,4.47-9.6,16.56-31.36,20.04-46.52,9.82-15.6-10.52-18.52-32.06-7.37-47.44,14.19-19.57,41.97-13.97,51.18-1.3l6.87,9.45h102.67c4.44-4.21,7.28-9.91,11.62-13.59,14.06-11.94,37.99-9.82,49.36,8.43,1.72,2.76,2.72,5.78,6.98,4.93,13.06-2.62,35.75-9.97,38.73-24.41,3.88-18.79-20.11-30.37-33.63-37.49l-29.61-15.58c-11.38-5.99-21.68-12.83-31.03-21.74-21.12-20.13-43.37-38.8-73.48-44.63-19.22-3.72-39.37-5.43-58.87-1.92-36.71,6.6-61.38,38-63.1,74.81ZM163.15,176.54c-6.63,3.09-8.63,9.9-5.84,15.63,2.47,5.07,9.09,8.07,14.71,5.18,5.32-2.73,7.74-8.31,6.13-14-1.65-5.86-9.01-9.61-15-6.82ZM330.7,176.42c-6.58,2.56-9,9.79-6.11,15.75,2.51,5.18,9.18,7.41,13.53,5.63,6.84-2.81,9.69-9.11,7.7-14.29-2.43-6.33-9.05-9.45-15.12-7.09Z"/>
</svg>